<?xml version="1.0" encoding="UTF-8" standalone="no"?>
<svg width="800px" height="600px" viewBox="0 0 800 600" version="1.1" xmlns="http://www.w3.org/2000/svg" xmlns:xlink="http://www.w3.org/1999/xlink" xmlns:sketch="http://www.bohemiancoding.com/sketch/ns">
    <!-- Generator: Sketch 3.1 (8751) - http://www.bohemiancoding.com/sketch -->
    <title>runbook_logo_color_on_white</title>
    <desc>Created with Sketch.</desc>
    <defs></defs>
    <g id="Page-1" stroke="none" stroke-width="1" fill="none" fill-rule="evenodd" sketch:type="MSPage">
        <g id="runbook_logo_color_on_black" sketch:type="MSLayerGroup" transform="translate(44.000000, 136.000000)">
            <g id="Group" sketch:type="MSShapeGroup">
                <g transform="translate(158.781560, 0.000000)" id="Shape">
                    <path d="M355.488652,77.8435583 C343.655887,52.4355828 317.866525,34.9233129 288.031773,34.9233129 C271.749078,34.9233129 256.68,40.1871166 244.34156,49.095092 C230.28383,19.6380368 200.145674,-0.202453988 166.366667,-0.202453988 C122.17078,-0.202453988 85.7622695,33.202454 80.7055319,76.0214724 C74.9408511,74.1993865 68.7716312,73.2883436 62.4001418,73.2883436 C28.0143262,73.2883436 0.101134752,101.226994 0.101134752,135.644172 C0.101134752,170.06135 28.0143262,198 62.4001418,198 C63.6137589,198 64.8273759,198 65.9398582,197.898773 C66.8500709,198 67.7602837,198 68.6704965,198 L263.354894,198 L282.267092,198 L333.239007,198 C367.422553,198 395.133475,169.858896 395.133475,135.644172 C395.133475,109.223926 378.648511,86.7515337 355.488652,77.8435583 L355.488652,77.8435583 Z" fill="#0075D6"></path>
                    <path d="M318.776738,91.1042945 C296.729362,91.1042945 288.941986,104.769939 288.941986,104.769939 C288.941986,104.769939 277.716028,90.9018405 258.80383,90.9018405 L257.792482,90.9018405 L257.792482,124.91411 L251.117589,116.107362 L244.038156,128.760736 L244.038156,93.7361963 C234.430355,97.7852761 229.171348,104.466258 229.171348,104.466258 L229.171348,165.202454 C229.171348,165.202454 236.351915,152.852761 259.309504,152.852761 C282.267092,152.852761 288.840851,165.202454 288.840851,165.202454 C288.840851,165.202454 297.133901,152.852761 319.282411,152.852761 C341.430922,152.852761 346.184255,165.202454 346.184255,165.202454 L346.184255,104.466258 C346.28539,104.567485 340.824113,91.1042945 318.776738,91.1042945 L318.776738,91.1042945 Z" fill="#FFFFFF"></path>
                    <path d="M166.467801,-0.303680982 C122.271915,-0.303680982 85.8634043,33.101227 80.8066667,75.9202454 C75.0419858,74.0981595 68.872766,73.1871166 62.5012766,73.1871166 C28.115461,73.1871166 0.202269504,101.125767 0.202269504,135.542945 C0.202269504,169.960123 28.115461,197.898773 62.5012766,197.898773 C63.7148936,197.898773 64.9285106,197.898773 66.0409929,197.797546 C66.9512057,197.898773 67.8614184,197.898773 68.7716312,197.898773 L102.651773,197.898773 L244.442695,49.095092 C230.486099,19.6380368 200.246809,-0.303680982 166.467801,-0.303680982 L166.467801,-0.303680982 Z" opacity="0.2" fill="#231F20"></path>
                </g>
                <g transform="translate(0.000000, 232.822086)" id="Shape" fill="#FFFFFF">
                    <path d="M52.1855319,95.8619632 L39.1391489,66 L28.8234043,66 L28.8234043,95.8619632 L0.101134752,95.8619632 L0.101134752,1.11349693 L50.6685106,1.11349693 C72.8170213,1.11349693 84.750922,15.892638 84.750922,33.607362 C84.750922,49.904908 75.2442553,58.6104294 67.7602837,62.3558282 L84.9531915,95.8619632 L52.1855319,95.8619632 L52.1855319,95.8619632 Z M55.6241135,33.506135 C55.6241135,28.3435583 51.0730496,26.1165644 46.2185816,26.1165644 L28.7222695,26.1165644 L28.7222695,40.9969325 L46.2185816,40.9969325 C51.0730496,40.9969325 55.6241135,38.7699387 55.6241135,33.506135 L55.6241135,33.506135 Z"></path>
                    <path d="M93.2462411,56.8895706 L93.2462411,1.01226994 L122.37305,1.01226994 L122.37305,55.8773006 C122.37305,64.9877301 128.34,72.1748466 140.071631,72.1748466 C151.702128,72.1748466 157.669078,64.8865031 157.669078,55.8773006 L157.669078,1.01226994 L186.795887,1.01226994 L186.795887,56.6871166 C186.795887,80.2730061 172.030213,97.4815951 140.071631,97.4815951 C108.11305,97.4815951 93.2462411,80.3742331 93.2462411,56.8895706 L93.2462411,56.8895706 Z"></path>
                    <path d="M263.354894,95.8619632 L228.463404,47.8803681 L228.463404,95.8619632 L199.741135,95.8619632 L199.741135,1.11349693 L229.272482,1.11349693 L262.242411,46.0582822 L262.242411,1.11349693 L290.964681,1.11349693 L290.964681,95.8619632 L263.354894,95.8619632 L263.354894,95.8619632 Z"></path>
                    <path d="M306.236028,95.8619632 L306.236028,1.11349693 L363.680567,1.11349693 C383.300709,1.11349693 391.796028,14.1717791 391.796028,25.3067485 C391.796028,37.0490798 384.81773,45.0460123 375.614468,47.0705521 C385.829078,48.5889571 393.616454,58.0030675 393.616454,70.2515337 C393.616454,83.5122699 384.716596,95.9631902 365.602128,95.9631902 L306.236028,95.9631902 L306.236028,95.8619632 Z M362.66922,30.3680982 C362.66922,27.1288344 359.938582,25.0030675 357.005674,25.0030675 L334.857163,25.0030675 L334.857163,36.0368098 L357.005674,36.0368098 C360.039716,36.0368098 362.66922,33.708589 362.66922,30.3680982 L362.66922,30.3680982 Z M364.59078,66 C364.59078,62.5582822 362.062411,59.9263804 357.915887,59.9263804 L334.958298,59.9263804 L334.958298,71.9723926 L357.915887,71.9723926 C361.961277,71.9723926 364.59078,69.5429448 364.59078,66 L364.59078,66 Z"></path>
                    <path d="M399.987943,48.4877301 C399.987943,19.3343558 422.540993,-0.506134969 451.768936,-0.506134969 C480.996879,-0.506134969 503.549929,19.4355828 503.549929,48.4877301 C503.549929,77.6411043 480.996879,97.4815951 451.768936,97.4815951 C422.642128,97.5828221 399.987943,77.6411043 399.987943,48.4877301 L399.987943,48.4877301 Z M474.524255,48.4877301 C474.524255,35.2269939 465.624397,24.8006135 451.768936,24.8006135 C438.01461,24.8006135 429.013617,35.3282209 429.013617,48.4877301 C429.013617,61.7484663 437.913475,72.1748466 451.768936,72.1748466 C465.624397,72.2760736 474.524255,61.7484663 474.524255,48.4877301 L474.524255,48.4877301 Z"></path>
                    <path d="M508.808936,48.4877301 C508.808936,19.3343558 531.361986,-0.506134969 560.589929,-0.506134969 C589.817872,-0.506134969 612.370922,19.4355828 612.370922,48.4877301 C612.370922,77.6411043 589.817872,97.4815951 560.589929,97.4815951 C531.361986,97.5828221 508.808936,77.6411043 508.808936,48.4877301 L508.808936,48.4877301 Z M583.244113,48.4877301 C583.244113,35.2269939 574.344255,24.8006135 560.488794,24.8006135 C546.734468,24.8006135 537.733475,35.3282209 537.733475,48.4877301 C537.733475,61.7484663 546.633333,72.1748466 560.488794,72.1748466 C574.344255,72.2760736 583.244113,61.7484663 583.244113,48.4877301 L583.244113,48.4877301 Z"></path>
                    <path d="M677.805106,95.8619632 L656.465674,62.4570552 L651.206667,69.5429448 L651.206667,95.8619632 L622.484397,95.8619632 L622.484397,1.11349693 L651.307801,1.11349693 L651.307801,36.6441718 L676.18695,1.11349693 L711.280709,1.11349693 L675.479007,45.1472393 L712.79773,95.8619632 L677.805106,95.8619632 L677.805106,95.8619632 Z"></path>
                </g>
            </g>
        </g>
        <g id="runbook_logo_color_on_white" sketch:type="MSArtboardGroup"></g>
    </g>
</svg>