<?xml version="1.0" encoding="utf-8"?>
<!-- Generator: Adobe Illustrator 18.1.0, SVG Export Plug-In . SVG Version: 6.00 Build 0)  -->
<!DOCTYPE svg PUBLIC "-//W3C//DTD SVG 1.1//EN" "http://www.w3.org/Graphics/SVG/1.1/DTD/svg11.dtd">
<svg version="1.1" id="Layer_1" xmlns="http://www.w3.org/2000/svg" xmlns:xlink="http://www.w3.org/1999/xlink" x="0px" y="0px"
	 viewBox="0 0 1060.9 618.1" enable-background="new 0 0 1060.9 618.1" xml:space="preserve">
<rect x="1.7" y="0" width="1057.4" height="618.1"/>
<g>
	<g>
		<path fill="#FFFFFF" d="M686.5,222.9c-11.7-25.1-37.2-42.4-66.7-42.4c-16.1,0-31,5.2-43.2,14c-13.9-29.1-43.7-48.7-77.1-48.7
			c-43.7,0-79.7,33-84.7,75.3c-5.7-1.8-11.8-2.7-18.1-2.7c-34,0-61.6,27.6-61.6,61.6s27.6,61.6,61.6,61.6c1.2,0,2.4,0,3.5-0.1
			c0.9,0.1,1.8,0.1,2.7,0.1h192.5c0,0,7.8,0,18.7,0c15.1,0,36,0,50.4,0c33.8,0,61.2-27.8,61.2-61.6
			C725.7,253.9,709.4,231.7,686.5,222.9z"/>
		<path d="M650.2,236c-21.8,0-29.5,13.5-29.5,13.5s-11.1-13.7-29.8-13.7c-0.3,0-0.6,0-1,0v33.6l-6.6-8.7l-7,12.5v-34.6
			c-9.5,4-14.7,10.6-14.7,10.6v60c0,0,7.1-12.2,29.8-12.2c22.7,0,29.2,12.2,29.2,12.2s8.2-12.2,30.1-12.2
			c21.9,0,26.6,12.2,26.6,12.2v-60C677.4,249.3,672,236,650.2,236z"/>
	</g>
	<g>
		<g>
			<path fill="#FFFFFF" d="M229.6,470.7l-12.9-29.5h-10.2v29.5h-28.4v-93.6h50c21.9,0,33.7,14.6,33.7,32.1
				c0,16.1-9.4,24.7-16.8,28.4l17,33.1H229.6z M233,409.1c0-5.1-4.5-7.3-9.3-7.3h-17.3v14.7h17.3C228.5,416.5,233,414.3,233,409.1z"
				/>
			<path fill="#FFFFFF" d="M270.2,432.2v-55.2h28.8v54.2c0,9,5.9,16.1,17.5,16.1c11.5,0,17.4-7.2,17.4-16.1v-54.2h28.8v55
				c0,23.3-14.6,40.3-46.2,40.3S270.2,455.4,270.2,432.2z"/>
			<path fill="#FFFFFF" d="M438.4,470.7l-34.5-47.4v47.4h-28.4v-93.6h29.2l32.6,44.4v-44.4h28.4v93.6H438.4z"/>
			<path fill="#FFFFFF" d="M480.8,470.7v-93.6h56.8c19.4,0,27.8,12.9,27.8,23.9c0,11.6-6.9,19.5-16,21.5
				c10.1,1.5,17.8,10.8,17.8,22.9c0,13.1-8.8,25.4-27.7,25.4H480.8z M536.6,406c0-3.2-2.7-5.3-5.6-5.3h-21.9v10.9H531
				C534,411.6,536.6,409.3,536.6,406z M538.5,441.2c0-3.4-2.5-6-6.6-6h-22.7v11.9h22.7C535.9,447.1,538.5,444.7,538.5,441.2z"/>
			<path fill="#FFFFFF" d="M573.5,423.9c0-28.8,22.3-48.4,51.2-48.4c28.9,0,51.2,19.7,51.2,48.4c0,28.8-22.3,48.4-51.2,48.4
				C595.9,472.4,573.5,452.7,573.5,423.9z M647.2,423.9c0-13.1-8.8-23.4-22.5-23.4c-13.6,0-22.5,10.4-22.5,23.4
				c0,13.1,8.8,23.4,22.5,23.4C638.4,447.4,647.2,437,647.2,423.9z"/>
			<path fill="#FFFFFF" d="M681.1,423.9c0-28.8,22.3-48.4,51.2-48.4c28.9,0,51.2,19.7,51.2,48.4c0,28.8-22.3,48.4-51.2,48.4
				C703.4,472.4,681.1,452.7,681.1,423.9z M754.7,423.9c0-13.1-8.8-23.4-22.5-23.4c-13.6,0-22.5,10.4-22.5,23.4
				c0,13.1,8.8,23.4,22.5,23.4C745.9,447.4,754.7,437,754.7,423.9z"/>
			<path fill="#FFFFFF" d="M848.2,470.7l-21.1-33l-5.2,7v26h-28.4v-93.6H822v35.1l24.6-35.1h34.7l-35.4,43.5l36.9,50.1H848.2z"/>
		</g>
	</g>
</g>
<path opacity="0.2" fill="#231F20" d="M499.6,145.7c-43.7,0-79.7,33-84.7,75.3c-5.7-1.8-11.8-2.7-18.1-2.7
	c-34,0-61.6,27.6-61.6,61.6s27.6,61.6,61.6,61.6c1.2,0,2.4,0,3.5-0.1c0.9,0.1,1.8,0.1,2.7,0.1h33.5l140.2-147
	C562.9,165.4,533,145.7,499.6,145.7z"/>
<g>
	<path fill="#FFFFFF" d="M178.2,514.2l0.9-0.8c1.5,1.8,4,3.5,7.4,3.5c5.5,0,6.9-3.2,6.9-5.4c0-7.9-14.5-4-14.5-12.1
		c0-3.9,3.5-6.1,7.5-6.1c3.5,0,6.1,1.3,7.7,3.4l-0.9,0.8c-1.7-2.2-4.1-3.1-6.8-3.1c-3.5,0-6.2,2.1-6.2,5c0,6.8,14.5,3.2,14.5,12.1
		c0,2.7-1.7,6.5-8.2,6.5C182.8,518,179.9,516.4,178.2,514.2z"/>
	<path fill="#FFFFFF" d="M199.1,508.9c0-5.1,3.2-9.1,8.1-9.1c4.9,0,8.1,4,8.1,9.1c0,5.1-3.2,9.1-8.1,9.1
		C202.2,518,199.1,514,199.1,508.9z M214,508.9c0-4.2-2.4-8.1-6.9-8.1c-4.4,0-6.9,3.9-6.9,8.1c0,4.2,2.5,8.1,6.9,8.1
		C211.6,517,214,513.1,214,508.9z"/>
	<path fill="#FFFFFF" d="M220.4,517.6v-23.9h1.1v23.9H220.4z"/>
	<path fill="#FFFFFF" d="M232.4,517.6l-7.4-17.3h1.3l6.8,16.1l6.8-16.1h1.3l-7.4,17.3H232.4z"/>
	<path fill="#FFFFFF" d="M244,496.3c0-0.6,0.5-1,1-1c0.6,0,1,0.5,1,1s-0.5,1-1,1C244.5,497.3,244,496.8,244,496.3z M244.5,517.6
		v-17.3h1.1v17.3H244.5z"/>
	<path fill="#FFFFFF" d="M263.4,517.6v-12.1c0-3.6-1.8-4.7-4.5-4.7c-2.4,0-4.9,1.5-6.1,3.3v13.5h-1.1v-17.3h1.1v2.7
		c1.3-1.6,3.9-3.2,6.3-3.2c3.4,0,5.4,1.6,5.4,5.7v12.1H263.4z"/>
	<path fill="#FFFFFF" d="M270.9,522l0.8-0.9c1.5,1.9,3.1,2.5,5.8,2.5c3.4,0,6.2-1.8,6.2-5.9v-3c-1.2,1.8-3.5,3.4-6.2,3.4
		c-4.7,0-7.7-3.6-7.7-9.1c0-5.4,3.1-9.1,7.7-9.1c2.6,0,4.8,1.4,6.2,3.4v-3h1.1v17.4c0,4.9-3.1,6.9-7.3,6.9
		C274.6,524.6,272.9,524.1,270.9,522z M283.7,513.6v-9.3c-1.1-1.8-3.5-3.5-6.2-3.5c-4.2,0-6.6,3.6-6.6,8.2s2.3,8.1,6.6,8.1
		C280.2,517.1,282.7,515.4,283.7,513.6z"/>
	<path fill="#FFFFFF" d="M300.4,517.6v-23.9h8.3c4.4,0,7,3.1,7,6.8c0,3.7-2.6,6.8-7,6.8h-7.1v10.4H300.4z M314.4,500.4
		c0-3.3-2.3-5.7-5.8-5.7h-7.1v11.4h7.1C312.1,506.1,314.4,503.7,314.4,500.4z"/>
	<path fill="#FFFFFF" d="M320.2,517.6v-17.3h1.1v3.2c1.5-2,3.4-3.5,5.9-3.5v1.3c-0.3,0-0.5,0-0.9,0c-1.8,0-4.3,1.8-5.1,3.4v13H320.2
		z"/>
	<path fill="#FFFFFF" d="M330.1,508.9c0-5.1,3.2-9.1,8.1-9.1c4.9,0,8.1,4,8.1,9.1c0,5.1-3.2,9.1-8.1,9.1
		C333.3,518,330.1,514,330.1,508.9z M345.1,508.9c0-4.2-2.4-8.1-6.9-8.1c-4.4,0-6.9,3.9-6.9,8.1c0,4.2,2.5,8.1,6.9,8.1
		C342.6,517,345.1,513.1,345.1,508.9z"/>
	<path fill="#FFFFFF" d="M351.5,517.6v-23.9h1.1v9.6c1.4-2,3.7-3.4,6.2-3.4c4.7,0,7.7,3.7,7.7,9.1c0,5.5-3.1,9.1-7.7,9.1
		c-2.7,0-5.1-1.5-6.2-3.3v2.9H351.5z M358.8,517c4.2,0,6.6-3.5,6.6-8.1c0-4.5-2.3-8.1-6.6-8.1c-2.7,0-5.2,1.7-6.2,3.5v9.3
		C353.6,515.4,356.1,517,358.8,517z"/>
	<path fill="#FFFFFF" d="M371.8,517.6v-23.9h1.1v23.9H371.8z"/>
	<path fill="#FFFFFF" d="M378.1,508.9c0-5,3.5-9.1,8.1-9.1c5.3,0,8,4.3,8,9.1v0.4h-14.9c0.1,4.2,2.9,7.8,7.3,7.8
		c2.4,0,4.4-0.9,6-2.6l0.6,0.7c-1.8,1.8-3.8,2.9-6.7,2.9C381.5,518,378.1,514.2,378.1,508.9z M386.2,500.8c-4.4,0-6.8,4.1-6.9,7.5
		h13.8C393.1,505,390.9,500.8,386.2,500.8z"/>
	<path fill="#FFFFFF" d="M419.8,517.6v-12.5c0-2.7-1.1-4.3-3.7-4.3c-1.9,0-4.3,1.5-5.4,3.2v13.5h-1.1v-12.5c0-2.7-1.1-4.3-3.7-4.3
		c-1.9,0-4.2,1.5-5.4,3.3v13.5h-1.1v-17.3h1.1v2.7c0.7-1.1,3.1-3.2,5.6-3.2c2.7,0,4.1,1.7,4.5,3.3c1-1.6,3.3-3.3,5.7-3.3
		c3.2,0,4.6,1.8,4.6,5.3v12.5H419.8z"/>
	<path fill="#FFFFFF" d="M425.5,515.2l0.9-0.8c1.1,1.4,2.9,2.6,5.5,2.6c3.2,0,5.1-1.7,5.1-4c0-5.3-11.1-2.5-11.1-8.6
		c0-2.5,2.1-4.6,5.9-4.6c3,0,4.8,1.2,5.9,2.6l-0.8,0.7c-1-1.4-2.8-2.4-5.2-2.4c-3,0-4.8,1.6-4.8,3.6c0,4.8,11.1,2,11.1,8.6
		c0,2.7-2,5-6.2,5C429.2,518,427.3,517.2,425.5,515.2z"/>
	<path fill="#FFFFFF" d="M471,517.6l-6.2-21.7l-6.2,21.7h-1.4l-6.8-23.9h1.3l6.2,22.2l6.3-22.2h1.2l6.3,22.2l6.2-22.2h1.3l-6.8,23.9
		H471z"/>
	<path fill="#FFFFFF" d="M494.8,517.6v-12.1c0-3.6-1.8-4.6-4.5-4.6c-2.4,0-4.9,1.5-6.1,3.3v13.5h-1.1v-23.9h1.1v9.3
		c1.3-1.6,3.9-3.2,6.3-3.2c3.4,0,5.4,1.5,5.4,5.6v12.1H494.8z"/>
	<path fill="#FFFFFF" d="M501.6,496.3c0-0.6,0.5-1,1-1c0.6,0,1,0.5,1,1s-0.5,1-1,1C502.1,497.3,501.6,496.8,501.6,496.3z
		 M502.1,517.6v-17.3h1.1v17.3H502.1z"/>
	<path fill="#FFFFFF" d="M509.3,517.6v-23.9h1.1v23.9H509.3z"/>
	<path fill="#FFFFFF" d="M515.6,508.9c0-5,3.5-9.1,8.1-9.1c5.3,0,8,4.3,8,9.1v0.4h-14.9c0.1,4.2,2.9,7.8,7.3,7.8
		c2.4,0,4.4-0.9,6-2.6l0.6,0.7c-1.8,1.8-3.8,2.9-6.7,2.9C519.1,518,515.6,514.2,515.6,508.9z M523.7,500.8c-4.4,0-6.8,4.1-6.9,7.5
		h13.8C530.6,505,528.5,500.8,523.7,500.8z"/>
	<path fill="#FFFFFF" d="M553.6,517.6v-10.4l-9.6-13.5h1.5l8.7,12.4l8.7-12.4h1.5l-9.6,13.5v10.4H553.6z"/>
	<path fill="#FFFFFF" d="M562.6,508.9c0-5.1,3.2-9.1,8.1-9.1c4.9,0,8.1,4,8.1,9.1c0,5.1-3.2,9.1-8.1,9.1
		C565.8,518,562.6,514,562.6,508.9z M577.5,508.9c0-4.2-2.4-8.1-6.9-8.1c-4.4,0-6.9,3.9-6.9,8.1c0,4.2,2.5,8.1,6.9,8.1
		C575.1,517,577.5,513.1,577.5,508.9z"/>
	<path fill="#FFFFFF" d="M595.6,517.6v-2.7c-1.5,1.6-3.9,3.1-6.3,3.1c-3.4,0-5.4-1.5-5.4-5.6v-12.1h1.1v12.1c0,3.6,1.8,4.6,4.5,4.6
		c2.4,0,4.9-1.4,6.1-3.2v-13.6h1.1v17.3H595.6z"/>
	<path fill="#FFFFFF" d="M611,514.2l0.9-0.8c1.5,1.8,4,3.5,7.4,3.5c5.5,0,6.9-3.2,6.9-5.4c0-7.9-14.5-4-14.5-12.1
		c0-3.9,3.5-6.1,7.5-6.1c3.5,0,6.1,1.3,7.7,3.4l-0.9,0.8c-1.7-2.2-4.1-3.1-6.8-3.1c-3.5,0-6.2,2.1-6.2,5c0,6.8,14.5,3.2,14.5,12.1
		c0,2.7-1.7,6.5-8.2,6.5C615.6,518,612.7,516.4,611,514.2z"/>
	<path fill="#FFFFFF" d="M632.8,517.6v-23.9h1.1v23.9H632.8z"/>
	<path fill="#FFFFFF" d="M639.1,508.9c0-5,3.5-9.1,8.1-9.1c5.3,0,8,4.3,8,9.1v0.4h-14.9c0.1,4.2,2.9,7.8,7.3,7.8
		c2.4,0,4.4-0.9,6-2.6l0.6,0.7c-1.8,1.8-3.8,2.9-6.7,2.9C642.6,518,639.1,514.2,639.1,508.9z M647.2,500.8c-4.4,0-6.8,4.1-6.9,7.5
		h13.8C654.1,505,651.9,500.8,647.2,500.8z"/>
	<path fill="#FFFFFF" d="M659.6,508.9c0-5,3.5-9.1,8.1-9.1c5.3,0,8,4.3,8,9.1v0.4h-14.9c0.1,4.2,2.9,7.8,7.3,7.8
		c2.4,0,4.4-0.9,6-2.6l0.6,0.7c-1.8,1.8-3.8,2.9-6.7,2.9C663,518,659.6,514.2,659.6,508.9z M667.7,500.8c-4.4,0-6.8,4.1-6.9,7.5
		h13.8C674.6,505,672.4,500.8,667.7,500.8z"/>
	<path fill="#FFFFFF" d="M682,514.6v9.6h-1.1v-23.9h1.1v2.9c1.2-1.8,3.5-3.3,6.2-3.3c4.7,0,7.7,3.6,7.7,9.1c0,5.4-3.1,9.1-7.7,9.1
		C685.7,518,683.4,516.6,682,514.6z M694.8,508.9c0-4.6-2.3-8.1-6.6-8.1c-2.7,0-5.2,1.6-6.2,3.4v9.3c1.1,1.8,3.5,3.5,6.2,3.5
		C692.5,517,694.8,513.5,694.8,508.9z"/>
</g>
</svg>
