<?xml version="1.0" encoding="utf-8"?>
<!-- Generator: Adobe Illustrator 18.1.0, SVG Export Plug-In . SVG Version: 6.00 Build 0)  -->
<!DOCTYPE svg PUBLIC "-//W3C//DTD SVG 1.1//EN" "http://www.w3.org/Graphics/SVG/1.1/DTD/svg11.dtd">
<svg version="1.1" id="Layer_1" xmlns="http://www.w3.org/2000/svg" xmlns:xlink="http://www.w3.org/1999/xlink" x="0px" y="0px"
	 viewBox="0 0 1060.9 618.1" enable-background="new 0 0 1060.9 618.1" xml:space="preserve">
<rect x="1.7" y="0" width="1057.4" height="618.1"/>
<g>
	<g>
		<path fill="#FFFFFF" d="M686.5,222.9c-11.7-25.1-37.2-42.4-66.7-42.4c-16.1,0-31,5.2-43.2,14c-13.9-29.1-43.7-48.7-77.1-48.7
			c-43.7,0-79.7,33-84.7,75.3c-5.7-1.8-11.8-2.7-18.1-2.7c-34,0-61.6,27.6-61.6,61.6s27.6,61.6,61.6,61.6c1.2,0,2.4,0,3.5-0.1
			c0.9,0.1,1.8,0.1,2.7,0.1h192.5c0,0,7.8,0,18.7,0c15.1,0,36,0,50.4,0c33.8,0,61.2-27.8,61.2-61.6
			C725.7,253.9,709.4,231.7,686.5,222.9z"/>
		<path d="M650.2,236c-21.8,0-29.5,13.5-29.5,13.5s-11.1-13.7-29.8-13.7c-0.3,0-0.6,0-1,0v33.6l-6.6-8.7l-7,12.5v-34.6
			c-9.5,4-14.7,10.6-14.7,10.6v60c0,0,7.1-12.2,29.8-12.2c22.7,0,29.2,12.2,29.2,12.2s8.2-12.2,30.1-12.2
			c21.9,0,26.6,12.2,26.6,12.2v-60C677.4,249.3,672,236,650.2,236z"/>
	</g>
	<g>
		<g>
			<path fill="#FFFFFF" d="M229.6,470.7l-12.9-29.5h-10.2v29.5h-28.4v-93.6h50c21.9,0,33.7,14.6,33.7,32.1
				c0,16.1-9.4,24.7-16.8,28.4l17,33.1H229.6z M233,409.1c0-5.1-4.5-7.3-9.3-7.3h-17.3v14.7h17.3C228.5,416.5,233,414.3,233,409.1z"
				/>
			<path fill="#FFFFFF" d="M270.2,432.2v-55.2h28.8v54.2c0,9,5.9,16.1,17.5,16.1c11.5,0,17.4-7.2,17.4-16.1v-54.2h28.8v55
				c0,23.3-14.6,40.3-46.2,40.3S270.2,455.4,270.2,432.2z"/>
			<path fill="#FFFFFF" d="M438.4,470.7l-34.5-47.4v47.4h-28.4v-93.6h29.2l32.6,44.4v-44.4h28.4v93.6H438.4z"/>
			<path fill="#FFFFFF" d="M480.8,470.7v-93.6h56.8c19.4,0,27.8,12.9,27.8,23.9c0,11.6-6.9,19.5-16,21.5
				c10.1,1.5,17.8,10.8,17.8,22.9c0,13.1-8.8,25.4-27.7,25.4H480.8z M536.6,406c0-3.2-2.7-5.3-5.6-5.3h-21.9v10.9H531
				C534,411.6,536.6,409.3,536.6,406z M538.5,441.2c0-3.4-2.5-6-6.6-6h-22.7v11.9h22.7C535.9,447.1,538.5,444.7,538.5,441.2z"/>
			<path fill="#FFFFFF" d="M573.5,423.9c0-28.8,22.3-48.4,51.2-48.4c28.9,0,51.2,19.7,51.2,48.4c0,28.8-22.3,48.4-51.2,48.4
				C595.9,472.4,573.5,452.7,573.5,423.9z M647.2,423.9c0-13.1-8.8-23.4-22.5-23.4c-13.6,0-22.5,10.4-22.5,23.4
				c0,13.1,8.8,23.4,22.5,23.4C638.4,447.4,647.2,437,647.2,423.9z"/>
			<path fill="#FFFFFF" d="M681.1,423.9c0-28.8,22.3-48.4,51.2-48.4c28.9,0,51.2,19.7,51.2,48.4c0,28.8-22.3,48.4-51.2,48.4
				C703.4,472.4,681.1,452.7,681.1,423.9z M754.7,423.9c0-13.1-8.8-23.4-22.5-23.4c-13.6,0-22.5,10.4-22.5,23.4
				c0,13.1,8.8,23.4,22.5,23.4C745.9,447.4,754.7,437,754.7,423.9z"/>
			<path fill="#FFFFFF" d="M848.2,470.7l-21.1-33l-5.2,7v26h-28.4v-93.6H822v35.1l24.6-35.1h34.7l-35.4,43.5l36.9,50.1H848.2z"/>
		</g>
	</g>
</g>
<path opacity="0.2" fill="#231F20" d="M499.6,145.7c-43.7,0-79.7,33-84.7,75.3c-5.7-1.8-11.8-2.7-18.1-2.7
	c-34,0-61.6,27.6-61.6,61.6s27.6,61.6,61.6,61.6c1.2,0,2.4,0,3.5-0.1c0.9,0.1,1.8,0.1,2.7,0.1h33.5l140.2-147
	C562.9,165.4,533,145.7,499.6,145.7z"/>
</svg>
