<?xml version="1.0" encoding="utf-8"?>
<!-- Generator: Adobe Illustrator 18.1.0, SVG Export Plug-In . SVG Version: 6.00 Build 0)  -->
<!DOCTYPE svg PUBLIC "-//W3C//DTD SVG 1.1//EN" "http://www.w3.org/Graphics/SVG/1.1/DTD/svg11.dtd">
<svg version="1.1" id="Layer_1" xmlns="http://www.w3.org/2000/svg" xmlns:xlink="http://www.w3.org/1999/xlink" x="0px" y="0px"
	 viewBox="0 0 1060.9 618.1" enable-background="new 0 0 1060.9 618.1" xml:space="preserve">
<g>
	<g>
		<path d="M686.5,222.9c-11.7-25.1-37.2-42.4-66.7-42.4c-16.1,0-31,5.2-43.2,14c-13.9-29.1-43.7-48.7-77.1-48.7
			c-43.7,0-79.7,33-84.7,75.3c-5.7-1.8-11.8-2.7-18.1-2.7c-34,0-61.6,27.6-61.6,61.6s27.6,61.6,61.6,61.6c1.2,0,2.4,0,3.5-0.1
			c0.9,0.1,1.8,0.1,2.7,0.1h192.5c0,0,7.8,0,18.7,0c15.1,0,36,0,50.4,0c33.8,0,61.2-27.8,61.2-61.6
			C725.7,253.9,709.4,231.7,686.5,222.9z"/>
		<path fill="#FFFFFF" d="M650.2,236c-21.8,0-29.5,13.5-29.5,13.5s-11.1-13.7-29.8-13.7c-0.3,0-0.6,0-1,0v33.6l-6.6-8.7l-7,12.5
			v-34.6c-9.5,4-14.7,10.6-14.7,10.6v60c0,0,7.1-12.2,29.8-12.2c22.7,0,29.2,12.2,29.2,12.2s8.2-12.2,30.1-12.2
			c21.9,0,26.6,12.2,26.6,12.2v-60C677.4,249.3,672,236,650.2,236z"/>
	</g>
	<g>
		<g>
			<path d="M229.6,470.7l-12.9-29.5h-10.2v29.5h-28.4v-93.6h50c21.9,0,33.7,14.6,33.7,32.1c0,16.1-9.4,24.7-16.8,28.4l17,33.1H229.6
				z M233,409.1c0-5.1-4.5-7.3-9.3-7.3h-17.3v14.7h17.3C228.5,416.5,233,414.3,233,409.1z"/>
			<path d="M270.2,432.2v-55.2h28.8v54.2c0,9,5.9,16.1,17.5,16.1c11.5,0,17.4-7.2,17.4-16.1v-54.2h28.8v55
				c0,23.3-14.6,40.3-46.2,40.3S270.2,455.4,270.2,432.2z"/>
			<path d="M438.4,470.7l-34.5-47.4v47.4h-28.4v-93.6h29.2l32.6,44.4v-44.4h28.4v93.6H438.4z"/>
			<path d="M480.8,470.7v-93.6h56.8c19.4,0,27.8,12.9,27.8,23.9c0,11.6-6.9,19.5-16,21.5c10.1,1.5,17.8,10.8,17.8,22.9
				c0,13.1-8.8,25.4-27.7,25.4H480.8z M536.6,406c0-3.2-2.7-5.3-5.6-5.3h-21.9v10.9H531C534,411.6,536.6,409.3,536.6,406z
				 M538.5,441.2c0-3.4-2.5-6-6.6-6h-22.7v11.9h22.7C535.9,447.1,538.5,444.7,538.5,441.2z"/>
			<path d="M573.5,423.9c0-28.8,22.3-48.4,51.2-48.4c28.9,0,51.2,19.7,51.2,48.4c0,28.8-22.3,48.4-51.2,48.4
				C595.9,472.4,573.5,452.7,573.5,423.9z M647.2,423.9c0-13.1-8.8-23.4-22.5-23.4c-13.6,0-22.5,10.4-22.5,23.4
				c0,13.1,8.8,23.4,22.5,23.4C638.4,447.4,647.2,437,647.2,423.9z"/>
			<path d="M681.1,423.9c0-28.8,22.3-48.4,51.2-48.4c28.9,0,51.2,19.7,51.2,48.4c0,28.8-22.3,48.4-51.2,48.4
				C703.4,472.4,681.1,452.7,681.1,423.9z M754.7,423.9c0-13.1-8.8-23.4-22.5-23.4c-13.6,0-22.5,10.4-22.5,23.4
				c0,13.1,8.8,23.4,22.5,23.4C745.9,447.4,754.7,437,754.7,423.9z"/>
			<path d="M848.2,470.7l-21.1-33l-5.2,7v26h-28.4v-93.6H822v35.1l24.6-35.1h34.7l-35.4,43.5l36.9,50.1H848.2z"/>
		</g>
	</g>
</g>
<g>
	<path d="M181,517.6v-23.9h7.1c7.4,0,11.9,5.6,11.9,12c0,6.4-4.5,11.9-11.9,11.9H181z M198.7,505.6c0-6-3.9-10.9-10.6-10.9h-5.9
		v21.7h5.9C194.8,516.5,198.7,511.7,198.7,505.6z"/>
	<path d="M204.5,508.9c0-5,3.5-9.1,8.1-9.1c5.3,0,8,4.3,8,9.1v0.4h-14.9c0.1,4.2,2.9,7.8,7.3,7.8c2.4,0,4.4-0.9,6-2.6l0.6,0.7
		c-1.8,1.8-3.8,2.9-6.7,2.9C207.9,518,204.5,514.2,204.5,508.9z M212.6,500.8c-4.4,0-6.8,4.1-6.9,7.5h13.8
		C219.5,505,217.3,500.8,212.6,500.8z"/>
	<path d="M230.6,517.6l-7.4-17.3h1.3l6.8,16.1l6.8-16.1h1.3l-7.4,17.3H230.6z"/>
	<path d="M242,505.6c0-6.9,4.4-12.4,11.4-12.4c6.9,0,11.4,5.4,11.4,12.4s-4.4,12.4-11.4,12.4C246.4,518,242,512.6,242,505.6z
		 M263.4,505.6c0-6.6-4-11.3-10.1-11.3c-6.2,0-10.1,4.7-10.1,11.3c0,6.5,3.9,11.3,10.1,11.3C259.5,516.9,263.4,512.1,263.4,505.6z"
		/>
	<path d="M271.2,514.6v9.6h-1.1v-23.9h1.1v2.9c1.2-1.8,3.5-3.3,6.2-3.3c4.7,0,7.7,3.6,7.7,9.1c0,5.4-3.1,9.1-7.7,9.1
		C274.8,518,272.6,516.6,271.2,514.6z M284,508.9c0-4.6-2.3-8.1-6.6-8.1c-2.7,0-5.2,1.6-6.2,3.4v9.3c1.1,1.8,3.5,3.5,6.2,3.5
		C281.6,517,284,513.5,284,508.9z"/>
	<path d="M288.7,515.2l0.9-0.8c1.1,1.4,2.9,2.6,5.5,2.6c3.2,0,5.1-1.7,5.1-4c0-5.3-11.1-2.5-11.1-8.6c0-2.5,2.1-4.6,5.9-4.6
		c3,0,4.8,1.2,5.9,2.6l-0.8,0.7c-1-1.4-2.8-2.4-5.2-2.4c-3,0-4.8,1.6-4.8,3.6c0,4.8,11.1,2,11.1,8.6c0,2.7-2,5-6.2,5
		C292.4,518,290.5,517.2,288.7,515.2z"/>
	<path d="M306.3,521.8l-0.8-0.6c1.1-0.9,1.9-2.2,1.9-3.3c0,0-0.2,0-0.3,0c-0.7,0-1.1-0.5-1.1-1.2c0-0.6,0.5-1.1,1.1-1.1
		c0.8,0,1.4,0.7,1.4,1.9C308.5,519.3,307.4,521,306.3,521.8z"/>
	<path d="M340.9,517.6l-2.7-6.4h-13.3l-2.7,6.4H321l10-23.9h1.4l10,23.9H340.9z M331.6,495l-6.2,15.1h12.5L331.6,495z"/>
	<path d="M357.4,517.6v-2.7c-1.5,1.6-3.9,3.1-6.3,3.1c-3.4,0-5.4-1.5-5.4-5.6v-12.1h1.1v12.1c0,3.6,1.8,4.6,4.5,4.6
		c2.4,0,4.9-1.4,6.1-3.2v-13.6h1.1v17.3H357.4z"/>
	<path d="M364.8,514.5v-13.3H362v-1h2.9v-4.7h1.1v4.7h3.5v1h-3.5v13.3c0,1.5,0.6,2.5,1.9,2.5c0.9,0,1.6-0.4,2-0.9l0.6,0.8
		c-0.7,0.6-1.4,1.1-2.7,1.1C365.8,518,364.8,516.7,364.8,514.5z"/>
	<path d="M372.9,508.9c0-5.1,3.2-9.1,8.1-9.1c4.9,0,8.1,4,8.1,9.1c0,5.1-3.2,9.1-8.1,9.1C376.1,518,372.9,514,372.9,508.9z
		 M387.8,508.9c0-4.2-2.4-8.1-6.9-8.1c-4.4,0-6.9,3.9-6.9,8.1c0,4.2,2.5,8.1,6.9,8.1C385.4,517,387.8,513.1,387.8,508.9z"/>
	<path d="M414.6,517.6v-12.5c0-2.7-1.1-4.3-3.7-4.3c-1.9,0-4.3,1.5-5.4,3.2v13.5h-1.1v-12.5c0-2.7-1.1-4.3-3.7-4.3
		c-1.9,0-4.2,1.5-5.4,3.3v13.5h-1.1v-17.3h1.1v2.7c0.7-1.1,3.1-3.2,5.6-3.2c2.7,0,4.1,1.7,4.5,3.3c1-1.6,3.3-3.3,5.7-3.3
		c3.2,0,4.6,1.8,4.6,5.3v12.5H414.6z"/>
	<path d="M433,517.6v-2.1c-1.6,1.8-3.5,2.5-6,2.5c-3,0-6.1-2.1-6.1-5.8c0-3.7,3-5.8,6.1-5.8c2.4,0,4.4,0.8,6,2.5v-3.9
		c0-2.8-2.2-4.3-4.9-4.3c-2.3,0-3.9,0.8-5.6,2.7l-0.8-0.7c1.7-2,3.5-3,6.4-3c3.4,0,5.9,1.7,5.9,5.2v12.5H433z M433,514.4v-4.3
		c-1.3-1.8-3.4-2.7-5.7-2.7c-3.2,0-5.2,2.1-5.2,4.8c0,2.7,2,4.8,5.2,4.8C429.6,517,431.7,516.1,433,514.4z"/>
	<path d="M440.5,514.5v-13.3h-2.9v-1h2.9v-4.7h1.1v4.7h3.5v1h-3.5v13.3c0,1.5,0.6,2.5,1.9,2.5c0.9,0,1.6-0.4,2-0.9l0.6,0.8
		c-0.7,0.6-1.4,1.1-2.7,1.1C441.4,518,440.5,516.7,440.5,514.5z"/>
	<path d="M448.5,508.9c0-5,3.5-9.1,8.1-9.1c5.3,0,8,4.3,8,9.1v0.4h-14.9c0.1,4.2,2.9,7.8,7.3,7.8c2.4,0,4.4-0.9,6-2.6l0.6,0.7
		c-1.8,1.8-3.8,2.9-6.7,2.9C452,518,448.5,514.2,448.5,508.9z M456.6,500.8c-4.4,0-6.8,4.1-6.9,7.5h13.8
		C463.5,505,461.3,500.8,456.6,500.8z"/>
	<path d="M482.9,517.6v-2.9c-1.2,1.8-3.5,3.3-6.2,3.3c-4.7,0-7.7-3.6-7.7-9.1c0-5.4,3.1-9.1,7.7-9.1c2.6,0,4.8,1.4,6.2,3.4v-9.6h1.1
		v23.9H482.9z M482.9,513.6v-9.3c-1.1-1.8-3.5-3.5-6.2-3.5c-4.2,0-6.6,3.6-6.6,8.1c0,4.6,2.3,8.1,6.6,8.1
		C479.4,517,481.8,515.4,482.9,513.6z"/>
	<path d="M489.6,516.7c0-0.6,0.5-1.1,1.2-1.1s1.2,0.5,1.2,1.1c0,0.6-0.5,1.2-1.2,1.2S489.6,517.4,489.6,516.7z"/>
</g>
</svg>
